<?xml version="1.0" standalone="no"?>
<!DOCTYPE svg PUBLIC "-//W3C//DTD SVG 20010904//EN"
 "http://www.w3.org/TR/2001/REC-SVG-20010904/DTD/svg10.dtd">
<svg version="1.0" xmlns="http://www.w3.org/2000/svg"
 width="1300.000000pt" height="553.000000pt" viewBox="0 0 1300.000000 553.000000"
 preserveAspectRatio="xMidYMid meet">

<g transform="translate(0.000000,553.000000) scale(0.100000,-0.100000)"
fill="#000000" stroke="none">
<path d="M5493 4510 l-213 -170 0 -930 c0 -737 -3 -930 -12 -930 -7 0 -116 31
-243 69 -126 38 -233 67 -237 64 -5 -2 -8 -348 -8 -769 l0 -764 -45 0 -45 0 0
770 c0 424 -2 770 -5 770 -3 0 -69 -14 -147 -30 -77 -17 -145 -30 -150 -30 -4
0 -8 71 -8 158 l0 159 83 22 c45 13 85 28 89 34 4 7 7 102 7 212 0 110 -3 205
-7 212 -4 6 -86 67 -182 136 l-175 126 -5 -552 -5 -552 -32 -3 -33 -3 0 555
c0 306 -1 556 -2 556 -2 0 -118 -58 -258 -129 l-255 -129 -2 -718 c-2 -396 -3
-909 -3 -1141 l0 -423 -30 0 -30 0 0 443 c0 243 0 452 0 463 0 24 9 24 -155 4
-64 -8 -102 -7 -190 8 -107 17 -110 18 -113 45 -4 33 -8 32 133 7 129 -23 148
-24 143 -8 -3 7 -24 16 -49 20 -220 37 -229 39 -229 64 0 30 12 30 150 4 123
-23 133 -24 128 -7 -3 7 -60 22 -139 37 -132 25 -134 26 -137 53 -4 32 -5 32
106 8 48 -11 106 -22 130 -25 39 -5 42 -4 42 17 0 22 -10 25 -152 56 -84 18
-163 35 -175 38 l-23 5 0 -616 0 -616 -30 0 -30 0 0 615 0 614 -82 -30 c-46
-17 -115 -43 -155 -59 l-71 -29 -104 21 c-57 11 -106 23 -110 26 -3 4 -8 18
-10 32 -2 18 1 24 12 21 42 -10 257 -51 268 -51 8 0 12 5 10 12 -4 12 -258 71
-258 60 0 -2 -7 1 -15 8 -16 13 -21 60 -6 60 5 0 68 -13 141 -30 155 -35 140
-33 140 -16 0 8 -10 16 -22 19 -13 3 -78 18 -145 33 l-123 27 0 30 c0 25 3 28
23 24 175 -42 258 -59 264 -54 14 14 -15 25 -149 57 -129 30 -138 34 -138 55
0 13 3 26 8 28 4 3 66 -10 137 -29 150 -39 145 -38 145 -21 0 9 -38 24 -107
41 -191 49 -183 46 -183 78 0 23 4 28 18 24 110 -32 264 -68 269 -62 13 13
-13 23 -132 55 -66 18 -128 34 -137 37 -12 4 -18 15 -18 36 0 21 4 29 13 25 8
-3 65 -19 128 -36 63 -18 122 -34 132 -37 10 -3 17 0 17 9 0 9 -28 22 -77 36
-218 62 -213 60 -213 85 0 12 2 25 5 28 3 3 63 -12 133 -33 139 -43 172 -48
153 -25 -7 8 -24 17 -39 21 -15 3 -78 22 -139 41 -104 32 -113 37 -113 60 0
32 11 31 139 -10 167 -53 156 -53 155 1 l-1 47 -154 54 c-85 30 -164 57 -176
59 l-23 5 0 -981 0 -981 -25 0 -25 0 0 543 c0 298 0 739 0 981 1 378 -1 438
-14 433 -28 -11 -501 -309 -508 -320 -5 -7 -8 -257 -8 -557 1 -300 1 -665 0
-812 l0 -268 -410 0 -410 0 0 -115 0 -115 5633 2 5632 3 0 110 0 110 -272 3
-273 2 -1 433 c0 237 -1 448 -2 467 l-2 34 -180 26 -180 26 -5 454 -5 455
-378 97 -378 97 -185 -87 -185 -87 1 -155 c1 -85 1 -256 1 -379 l-1 -223 -42
5 c-35 4 -75 -7 -210 -56 l-168 -60 0 -523 0 -524 -40 0 -40 0 0 1341 c0 738
-1 1343 -2 1343 -12 8 -395 166 -401 166 -4 0 -7 -642 -7 -1426 l0 -1425 -42
3 -43 3 -5 1422 -5 1422 -302 -227 -302 -227 -1 -410 0 -411 183 -43 c100 -23
190 -45 200 -47 16 -5 17 -49 17 -745 l0 -739 -30 0 -30 0 0 718 0 717 -188
44 c-103 23 -260 61 -349 82 -89 21 -167 39 -173 39 -7 0 -10 -223 -10 -732 0
-403 0 -763 0 -800 0 -66 -1 -68 -25 -68 -19 0 -25 5 -25 23 0 12 0 372 0 800
0 427 -3 777 -7 777 -5 0 -60 -28 -123 -63 -63 -35 -172 -94 -242 -131 l-128
-67 0 -670 0 -669 -25 0 -25 0 -2 776 -3 776 -55 23 c-30 12 -120 50 -200 84
-80 33 -148 61 -152 61 -5 0 -8 -26 -8 -59 0 -52 -2 -59 -22 -65 -13 -3 -138
-36 -278 -72 -140 -36 -279 -72 -307 -80 l-53 -15 0 -49 c0 -29 5 -50 11 -50
6 0 47 9 92 20 45 10 181 42 302 70 121 28 228 54 238 56 13 4 17 -1 17 -25 0
-35 16 -29 -200 -77 -163 -36 -218 -48 -375 -82 l-80 -17 -3 -52 c-2 -34 1
-53 8 -53 10 0 571 112 628 125 21 5 23 3 20 -27 l-3 -32 -150 -27 c-82 -15
-221 -42 -308 -58 -87 -17 -167 -31 -178 -31 -16 0 -19 -8 -19 -55 0 -37 4
-55 13 -55 6 0 102 16 212 35 110 19 214 37 232 40 42 5 151 24 181 30 19 5
22 1 22 -24 0 -16 -6 -31 -12 -34 -7 -2 -156 -26 -330 -53 l-318 -49 0 -52 c0
-29 3 -53 8 -53 8 0 128 16 437 59 111 15 205 24 211 19 16 -12 5 -54 -14 -55
-9 -1 -93 -11 -187 -23 -93 -11 -234 -28 -312 -38 l-143 -17 0 -52 c0 -29 2
-53 5 -53 10 0 468 46 588 59 l67 7 0 -31 0 -31 -262 -23 c-145 -12 -293 -25
-330 -28 l-68 -6 0 -53 c0 -30 3 -54 8 -54 4 0 135 9 292 20 379 26 360 27
360 -8 l0 -28 -307 -17 c-170 -10 -318 -17 -330 -17 -21 0 -23 -5 -23 -56 l0
-56 93 6 c50 3 199 9 330 12 l237 7 0 -30 0 -31 -330 -7 -330 -7 0 -54 0 -54
330 0 330 0 0 -105 0 -105 -395 0 -395 0 0 833 c0 457 0 1117 0 1465 l0 633
-292 -150 -293 -150 -3 -1316 -2 -1315 -40 0 -40 0 0 70 0 70 -170 0 -170 0 0
49 0 48 170 8 170 7 0 27 c0 25 -3 26 -42 24 -24 -1 -100 -4 -170 -6 l-128 -3
0 52 0 52 133 6 c194 10 207 13 207 43 l0 26 -117 -7 c-65 -4 -142 -9 -170
-12 l-53 -6 0 54 0 55 83 7 c45 4 93 9 107 10 14 2 53 4 88 4 62 2 62 2 62 32
0 36 5 35 -175 15 -180 -20 -165 -23 -165 34 0 39 4 51 18 55 9 2 86 12 170
22 l152 17 0 28 c0 16 -4 29 -8 29 -5 0 -73 -9 -152 -20 -194 -27 -180 -29
-180 29 0 46 2 50 28 55 32 7 290 46 303 46 5 0 9 14 9 30 0 29 -2 31 -32 25
-18 -3 -84 -14 -147 -25 -166 -29 -161 -30 -161 30 0 28 1 50 3 50 1 0 76 14
165 30 90 17 166 30 168 30 2 0 4 14 4 31 0 24 -4 29 -17 25 -10 -2 -79 -17
-153 -31 -74 -14 -143 -29 -152 -31 -16 -5 -18 2 -18 48 l0 53 83 18 c257 57
257 57 257 83 0 14 -6 24 -14 24 -13 0 -225 -46 -299 -65 l-28 -7 3 53 3 53
125 31 c221 56 210 52 210 85 0 28 -1 28 -32 19 -67 -20 -290 -79 -299 -79 -5
0 -9 22 -9 49 0 56 -14 46 140 91 184 53 200 60 200 86 0 13 -6 24 -12 24 -7
0 -84 -22 -170 -49 l-158 -48 0 52 0 51 168 55 c158 52 167 56 170 82 2 15 -1
27 -5 27 -8 0 -274 -89 -316 -105 -16 -7 -18 -2 -15 46 l3 54 167 60 c163 58
168 61 168 88 0 34 14 36 -189 -39 -79 -30 -146 -54 -148 -54 -2 0 -3 23 -1
52 l3 51 167 66 c161 63 168 67 168 94 0 15 -2 27 -3 27 -2 0 -75 -29 -162
-65 -88 -36 -163 -65 -167 -65 -5 0 -8 23 -6 51 l3 51 168 71 c159 67 167 71
167 98 l0 28 -67 -28 c-38 -16 -110 -47 -161 -70 -51 -22 -97 -41 -102 -41 -6
0 -10 22 -10 48 l0 48 170 78 c161 74 170 80 170 107 l0 28 -104 -49 c-57 -27
-131 -62 -164 -79 -34 -17 -64 -31 -67 -31 -3 0 -5 24 -5 53 l0 52 170 82
c166 80 170 82 170 113 l0 31 -165 -85 c-90 -47 -167 -86 -170 -86 -3 0 -5 23
-3 52 l3 52 165 87 c144 75 165 90 168 113 2 14 0 26 -4 26 -7 0 -142 -71
-261 -137 -35 -19 -66 -32 -71 -29 -4 2 -6 25 -3 51 l6 45 165 93 c143 81 165
97 168 120 2 15 0 27 -4 27 -6 0 -262 -146 -311 -178 -23 -14 -23 -14 -23 39
l0 54 168 100 c145 87 167 104 170 128 2 15 1 27 -2 27 -3 0 -65 -37 -138 -81
-73 -45 -148 -90 -165 -101 l-33 -20 0 54 1 53 169 105 c154 95 170 108 170
133 0 20 -4 26 -12 21 -22 -13 -231 -146 -276 -175 -24 -16 -45 -29 -48 -29
-2 0 -4 22 -4 50 l0 50 170 112 169 113 1 73 c0 39 -1 72 -2 72 -2 0 -99 -77
-215 -170z m3860 -732 c16 -12 17 -98 17 -1232 0 -751 -3 -1223 -9 -1229 -5
-5 -17 -7 -26 -4 -14 6 -15 122 -14 1242 1 679 5 1235 9 1235 3 0 14 -6 23
-12z m107 -188 c3 -85 4 -630 2 -1211 -2 -1046 -2 -1057 -22 -1062 -20 -5 -20
0 -20 291 0 164 0 662 0 1107 -1 446 -1 861 0 923 0 103 2 113 18 110 15 -3
18 -21 22 -158z m90 -1079 c0 -1036 -2 -1190 -15 -1194 -8 -4 -17 -2 -20 3 -4
7 -6 729 -5 2238 0 160 0 162 20 152 20 -11 20 -21 20 -1199z m80 962 c1
-1421 -1 -2146 -5 -2154 -3 -4 -12 -6 -20 -2 -13 4 -15 157 -15 1184 0 1172 0
1179 20 1179 19 0 20 -7 20 -207z m-3402 130 c-3 -53 -5 -57 -35 -70 l-33 -13
0 60 c0 54 3 62 23 70 44 18 48 13 45 -47z m-87 -36 c-1 -34 -8 -56 -19 -64
-32 -25 -42 -16 -42 42 0 49 3 56 28 69 15 8 29 12 31 10 3 -3 4 -28 2 -57z
m-74 -32 c2 -51 0 -56 -26 -70 -16 -8 -31 -11 -35 -8 -3 4 -6 30 -6 58 0 44 3
54 23 63 37 18 42 14 44 -43z m-77 -38 c0 -48 -3 -55 -25 -65 -14 -7 -28 -12
-30 -12 -3 0 -5 25 -5 55 0 41 4 56 18 64 34 21 42 13 42 -42z m240 -32 c0
-50 -2 -56 -30 -70 -16 -8 -31 -15 -35 -15 -3 0 -5 26 -5 58 0 51 3 60 23 70
42 20 47 15 47 -43z m-87 -36 c-1 -55 -6 -63 -40 -74 -22 -6 -23 -4 -23 52 0
55 2 60 28 69 15 6 29 9 31 7 2 -1 4 -26 4 -54z m-73 -32 c0 -48 -3 -55 -25
-65 -41 -19 -45 -15 -45 43 0 48 3 57 23 65 42 17 47 13 47 -43z m-1990 -87
l0 -119 -46 -21 c-26 -11 -48 -20 -50 -20 -2 0 -4 53 -4 118 l0 118 43 21 c23
12 45 22 50 22 4 1 7 -53 7 -119z m1910 55 c0 -43 -4 -56 -19 -65 -35 -18 -41
-12 -41 43 0 46 3 56 23 65 35 17 37 15 37 -43z m-2030 -105 c0 -120 0 -121
-25 -130 -74 -28 -70 -34 -67 95 l3 116 42 19 c23 10 43 19 45 19 1 1 2 -53 2
-119z m2270 65 c0 -50 -2 -56 -30 -70 -16 -8 -31 -15 -35 -15 -3 0 -5 26 -5
58 0 51 3 60 23 70 42 20 47 15 47 -43z m-90 -33 c0 -53 -2 -60 -25 -70 -14
-7 -28 -12 -30 -12 -3 0 -5 26 -5 58 0 51 3 60 23 70 35 17 37 15 37 -46z
m-2291 -83 l-1 -111 -42 -17 -41 -18 -5 81 c-8 124 -3 146 34 162 57 24 57 24
55 -97z m2220 52 c2 -46 0 -51 -28 -65 -17 -9 -32 -16 -36 -16 -3 0 -5 25 -5
55 0 49 3 56 27 69 16 8 30 13 34 11 3 -2 6 -26 8 -54z m-79 -30 c0 -57 -1
-59 -30 -70 l-30 -10 0 59 c0 60 1 61 58 79 1 1 2 -26 2 -58z m-2250 -70 l0
-109 -27 -10 c-16 -5 -36 -13 -45 -17 -17 -7 -18 2 -18 104 0 110 0 110 28
125 59 32 62 27 62 -93z m2490 20 c0 -57 -1 -59 -31 -70 -18 -6 -34 -11 -35
-11 -2 0 -4 26 -4 58 0 51 3 60 23 70 42 20 47 15 47 -47z m-90 -21 c0 -27 0
-53 1 -57 1 -4 -13 -13 -30 -20 l-31 -13 0 58 c0 51 3 60 23 70 35 17 37 15
37 -38z m-71 -35 c1 -45 -2 -56 -18 -65 -42 -22 -51 -14 -51 44 0 50 2 55 28
64 15 6 30 11 33 11 3 1 7 -24 8 -54z m-1989 -98 l0 -124 -37 -12 c-21 -7 -44
-15 -50 -17 -10 -4 -13 22 -13 114 l0 120 48 20 c26 11 48 21 50 21 1 1 2 -55
2 -122z m1910 68 c0 -50 -2 -56 -26 -65 -14 -6 -27 -10 -30 -10 -2 0 -4 25 -4
55 0 41 4 56 18 64 35 21 42 13 42 -44z m-2030 -114 l0 -119 -45 -15 -45 -16
0 118 0 118 38 16 c20 8 40 15 45 16 4 1 7 -53 7 -118z m2269 58 c-3 -58 -6
-64 -41 -73 l-28 -6 0 59 c0 56 2 60 28 69 38 13 43 7 41 -49z m4662 -19 c156
-39 301 -76 322 -82 l37 -11 0 -457 0 -456 183 -24 182 -25 3 -442 2 -443
-740 0 -740 0 0 533 c0 294 2 536 5 539 3 2 29 1 57 -4 29 -5 126 -19 216 -32
l162 -22 0 490 c0 270 0 497 0 505 0 7 6 11 13 8 8 -3 141 -37 298 -77z
m-4748 -62 c-1 -3 -16 -11 -33 -16 l-30 -11 0 59 c0 55 2 59 28 68 27 9 27 8
33 -42 3 -28 4 -54 2 -58z m-2294 -12 c-1 -57 -4 -108 -8 -114 -7 -12 -55 -32
-74 -32 -9 0 -11 30 -9 111 l3 111 32 13 c58 25 58 25 56 -89z m2220 39 c2
-51 0 -56 -24 -65 -42 -16 -45 -13 -45 45 0 48 3 57 23 65 39 16 44 12 46 -45z
m-2329 -85 c0 -121 5 -112 -67 -134 -23 -7 -23 -7 -23 102 l0 108 33 17 c56
28 57 27 57 -93z m2250 56 c0 -51 -2 -55 -30 -65 l-30 -10 0 59 c0 59 5 68 43
69 14 1 17 -8 17 -53z m236 -60 c6 -53 5 -56 -21 -66 -42 -16 -45 -13 -45 48
0 54 2 59 28 68 15 6 28 10 30 9 1 -2 5 -28 8 -59z m-86 -25 c0 -57 -1 -59
-30 -70 l-30 -10 0 60 c0 53 3 61 23 69 36 14 37 13 37 -49z m-70 -25 c0 -52
-1 -55 -31 -65 -18 -6 -34 -11 -35 -11 -2 0 -4 27 -4 59 0 62 4 67 53 70 14 1
17 -8 17 -53z m-80 -21 c0 -50 -2 -56 -26 -65 -14 -6 -27 -10 -30 -10 -2 0 -4
25 -4 55 0 48 3 57 23 65 36 14 37 13 37 -45z m-3760 23 c0 -23 -60 -60 -317
-201 l-53 -29 0 24 c0 20 26 39 173 125 94 56 178 102 185 102 6 1 12 -9 12
-21z m1850 -107 l0 -119 -45 -16 c-36 -12 -47 -12 -51 -2 -3 7 -3 61 -2 121
l3 108 35 13 c62 22 60 25 60 -105z m-120 -40 l0 -118 -27 -6 c-16 -3 -36 -9
-45 -12 -17 -7 -18 3 -18 112 l0 119 33 11 c59 19 57 23 57 -106z m2270 54 c0
-56 -14 -75 -54 -75 -25 0 -23 117 2 123 48 13 52 10 52 -48z m-4000 11 c0
-21 -23 -36 -180 -120 -99 -53 -182 -96 -185 -96 -3 0 -5 10 -5 23 0 18 19 32
101 76 55 29 135 73 177 97 42 24 80 44 85 44 4 0 7 -11 7 -24z m3912 -32 c2
-45 0 -58 -14 -65 -39 -21 -48 -12 -48 46 0 48 3 57 23 65 35 14 35 13 39 -46z
m-2294 -67 c3 -115 3 -116 -60 -131 l-28 -6 0 113 0 114 33 10 c17 6 37 10 42
9 6 -2 11 -49 13 -109z m2221 40 c2 -49 0 -55 -21 -61 -45 -12 -48 -8 -48 48
0 50 2 55 28 64 15 5 30 8 33 6 3 -2 7 -27 8 -57z m-2329 -75 l0 -109 -39 -11
c-21 -7 -41 -12 -45 -12 -3 0 -6 49 -6 109 l0 109 28 10 c62 23 62 22 62 -96z
m2250 54 c0 -47 -3 -54 -22 -60 -37 -10 -38 -8 -38 48 0 55 6 64 43 65 14 1
17 -8 17 -53z m-3767 -26 c-4 -5 -88 -49 -186 -99 -171 -87 -178 -89 -175 -64
3 22 27 38 183 119 165 85 180 92 183 73 2 -12 0 -25 -5 -29z m4007 -45 c0
-56 -14 -75 -54 -75 -25 0 -23 117 2 123 48 13 52 10 52 -48z m-86 -21 c-1
-57 -12 -74 -46 -74 -15 0 -18 9 -18 59 0 62 0 62 55 70 6 0 10 -22 9 -55z
m-74 -19 c0 -50 -2 -56 -26 -65 -41 -16 -44 -13 -44 45 0 48 3 57 23 65 43 17
47 13 47 -45z m-3842 23 c-3 -25 -28 -38 -250 -142 -113 -53 -118 -54 -118
-33 0 20 25 36 173 109 94 48 178 87 185 87 8 1 12 -8 10 -21z m3762 -48 c0
-45 -4 -60 -14 -60 -8 0 -21 -3 -30 -6 -14 -5 -16 3 -16 54 0 49 3 61 18 65
40 11 42 8 42 -53z m-1910 15 c0 -8 -16 -19 -37 -24 -47 -13 -63 -14 -63 -1 0
7 38 23 98 39 1 1 2 -6 2 -14z m-1852 -51 c-3 -24 -21 -34 -182 -105 -99 -43
-181 -79 -183 -79 -2 0 -3 10 -3 23 0 20 22 33 178 105 97 44 181 81 185 81 5
1 7 -11 5 -25z m1732 16 c0 -5 -18 -15 -40 -21 l-39 -12 -4 -106 -3 -106 -2
117 -2 116 28 10 c36 14 62 14 62 2z m2268 -71 c-3 -53 -4 -54 -35 -57 l-33
-3 0 60 c0 58 1 60 28 63 39 5 44 -2 40 -63z m-1607 -89 c-1 -79 -4 -146 -6
-148 -1 -2 -71 -14 -154 -26 l-151 -23 0 143 0 143 53 10 c160 33 243 48 251
47 4 -1 7 -67 7 -146z m-772 30 c-1 -119 -1 -119 -61 -134 l-28 -6 0 115 0
114 33 10 c60 17 58 20 56 -99z m2293 58 c3 -55 -9 -78 -43 -78 -17 0 -19 7
-19 59 0 54 2 60 23 64 12 2 25 5 29 6 3 0 8 -22 10 -51z m2224 40 c2 -2 4
-284 6 -626 l3 -622 -42 0 -43 0 0 631 0 632 36 -6 c20 -3 38 -8 40 -9z
m-2296 -63 c0 -56 -3 -61 -45 -67 -18 -3 -20 3 -23 54 -2 47 0 57 15 61 50 13
53 10 53 -48z m-2330 -64 c0 -61 -3 -112 -8 -115 -4 -2 -24 -7 -45 -11 l-37
-7 0 111 0 110 33 10 c59 17 57 20 57 -98z m4767 101 c10 -6 13 -144 15 -615
l3 -607 -42 0 -43 0 0 615 0 615 28 0 c15 0 33 -4 39 -8z m-2517 -56 c0 -54
-8 -66 -46 -66 -19 0 -20 106 -1 113 39 16 47 8 47 -47z m-3762 17 c-3 -25
-17 -33 -186 -104 -182 -77 -183 -77 -180 -51 3 24 20 34 178 103 96 43 179
78 183 78 5 1 7 -11 5 -26z m6429 12 c10 -3 12 -137 13 -587 0 -321 -4 -589
-9 -596 -8 -14 -78 -13 -73 1 1 4 2 275 2 602 l0 595 28 -6 c15 -3 32 -7 39
-9z m-4407 -143 l0 -138 -117 -18 c-65 -9 -128 -20 -141 -23 l-23 -5 3 138 3
139 110 21 c61 12 122 22 138 23 l27 1 0 -138z m4531 118 c19 0 19 -15 19
-585 l0 -585 -35 0 -35 0 0 591 c0 535 2 591 16 585 9 -3 24 -6 35 -6z m-2553
-101 c-3 -53 -4 -54 -36 -57 l-33 -3 3 57 c3 53 5 59 28 65 36 9 42 -1 38 -62z
m-3998 27 c0 -21 -17 -30 -186 -93 -182 -69 -185 -70 -182 -46 3 22 22 32 173
93 94 38 176 69 183 70 6 0 12 -11 12 -24z m3911 17 c6 -98 5 -105 -19 -114
-39 -15 -42 -11 -42 50 0 63 -2 60 53 70 4 0 7 -2 8 -6z m-71 -67 c0 -56 -8
-66 -51 -66 -16 0 -19 7 -19 54 0 56 5 64 48 65 20 1 22 -3 22 -53z m-80 -16
l0 -60 -30 0 c-30 0 -30 1 -30 54 0 57 -2 55 53 65 4 0 7 -26 7 -59z m-3762
-16 c-3 -24 -16 -31 -183 -90 -99 -35 -181 -64 -182 -64 -2 0 -3 11 -3 23 0
21 17 30 173 89 94 36 178 66 185 67 9 1 12 -8 10 -25z m1649 -196 c-2 -35 -3
-7 -3 62 0 69 1 97 3 63 2 -35 2 -91 0 -125z m-27 51 c0 -79 -3 -111 -12 -113
-7 -3 -28 -7 -45 -10 l-33 -5 0 114 0 115 28 6 c15 3 32 7 37 9 22 6 25 -10
25 -116z m2375 61 c0 -53 -1 -54 -32 -61 l-33 -6 0 57 c0 65 4 72 40 68 23 -3
25 -7 25 -58z m-83 -10 c-1 -29 -3 -55 -5 -55 -1 -1 -14 -5 -29 -9 l-28 -6 0
59 c0 48 3 60 18 64 41 11 47 4 44 -53z m-72 -14 c0 -51 -2 -54 -27 -59 -38
-7 -45 2 -41 59 3 42 6 49 28 55 36 9 40 4 40 -55z m-3842 27 c-3 -27 -11 -31
-178 -85 -96 -32 -178 -58 -182 -58 -5 0 -8 10 -8 23 0 20 19 28 178 84 97 34
181 62 185 62 5 1 7 -11 5 -26z m1512 -82 c0 -119 -1 -121 -61 -121 l-29 0 0
109 c0 120 -3 115 68 120 22 1 22 -1 22 -108z m-1234 87 c35 -6 64 -14 64 -18
0 -13 -87 -36 -115 -31 -24 5 -31 12 -33 34 -4 31 -3 31 84 15z m3482 -45 c-3
-55 -4 -58 -30 -61 -27 -3 -28 -2 -28 51 0 61 4 67 37 67 23 0 24 -3 21 -57z
m-1368 -123 c0 -82 -3 -150 -7 -150 -5 0 -66 -7 -138 -15 -71 -8 -138 -15
-148 -15 -16 0 -17 12 -15 142 l3 142 140 22 c77 12 146 22 153 23 9 1 12 -35
12 -149z m-2330 137 c0 -2 -10 -12 -22 -23 l-23 -19 19 23 c18 21 26 27 26 19z
m-60 -61 c0 -15 -7 -27 -17 -30 -10 -3 -88 -25 -174 -50 -86 -25 -162 -46
-168 -46 -7 0 -11 10 -9 22 3 18 27 29 168 74 91 29 173 53 183 53 12 1 17 -6
17 -23z m197 -23 c-3 -10 -5 -4 -5 12 0 17 2 24 5 18 2 -7 2 -21 0 -30z m1823
-103 c0 -138 0 -140 -22 -140 -13 -1 -74 -7 -136 -13 -62 -7 -115 -11 -117 -8
-3 2 -5 64 -5 136 l0 132 108 15 c59 8 122 16 140 17 l32 1 0 -140z m1978 73
c-3 -56 -4 -57 -35 -64 l-33 -6 0 57 c0 31 3 60 7 63 3 4 19 7 35 7 l30 0 -4
-57z m-86 37 c2 -5 1 -32 0 -60 -4 -48 -5 -50 -33 -50 -28 0 -29 1 -29 54 0
34 5 56 13 59 21 9 45 7 49 -3z m-77 -60 c0 -55 0 -55 -32 -58 l-33 -3 0 55
c0 43 4 55 18 59 40 11 47 4 47 -53z m-75 -10 l0 -60 -30 0 c-30 0 -30 1 -30
54 0 55 6 64 43 65 14 1 17 -8 17 -59z m1101 23 c13 -16 12 -17 -3 -4 -10 7
-18 15 -18 17 0 8 8 3 21 -13z m-4863 -20 c-3 -26 -9 -28 -163 -68 -88 -23
-170 -45 -182 -49 -20 -6 -23 -4 -23 18 0 22 7 27 53 40 28 8 93 27 142 41
181 54 177 53 173 18z m199 -30 c-3 -10 -5 -4 -5 12 0 17 2 24 5 18 2 -7 2
-21 0 -30z m3463 14 c0 -2 -10 -12 -22 -23 l-23 -19 19 23 c18 21 26 27 26 19z
m-2720 -24 c25 -6 25 -6 -5 -13 -16 -3 -29 -11 -27 -18 1 -7 -10 -12 -28 -12
-25 0 -30 4 -30 23 0 13 2 26 5 29 6 5 40 2 85 -9z m707 -175 c-2 -35 -3 -9
-3 57 0 66 1 94 3 63 2 -32 2 -86 0 -120z m-1649 135 c-3 -27 -7 -29 -173 -70
-93 -23 -176 -42 -182 -42 -7 -1 -13 10 -13 23 0 17 7 25 28 30 15 3 95 24
177 45 83 22 154 40 158 40 5 1 7 -11 5 -26z m1622 -84 c0 -103 -1 -111 -21
-116 -20 -6 -20 -6 0 -27 17 -19 19 -34 18 -131 l-2 -110 -39 -3 c-21 -2 -42
1 -45 6 -3 6 -5 58 -3 116 l3 106 36 0 c35 0 36 0 18 20 -10 11 -26 20 -35 20
-22 0 -26 22 -22 138 l3 92 45 0 44 0 0 -111z m2378 50 c3 -52 1 -57 -20 -63
-45 -12 -48 -9 -48 53 0 61 7 72 45 68 17 -2 20 -10 23 -58z m-2488 -58 c0
-61 -3 -112 -7 -114 -5 -2 -25 -7 -46 -11 l-38 -7 3 113 3 113 30 6 c17 4 36
7 43 8 9 1 12 -27 12 -108z m2403 97 c-2 -5 -3 -30 -3 -57 0 -47 -1 -49 -30
-53 l-30 -5 0 58 c0 36 5 59 13 63 17 7 53 3 50 -6z m-75 -55 c-3 -57 -3 -58
-35 -61 l-33 -3 0 54 c0 62 3 67 42 67 29 0 29 0 26 -57z m-3641 10 c-3 -10
-5 -4 -5 12 0 17 2 24 5 18 2 -7 2 -21 0 -30z m3563 -18 c0 -30 -3 -55 -7 -55
-5 0 -18 -3 -30 -6 -22 -6 -23 -4 -23 55 l0 61 30 0 c30 0 30 -1 30 -55z
m-2852 1 c5 -25 -9 -37 -36 -30 -15 5 -22 14 -22 31 0 21 4 24 27 21 18 -2 29
-10 31 -22z m4113 -3 c13 -16 12 -17 -3 -4 -10 7 -18 15 -18 17 0 8 8 3 21
-13z m-5021 -28 c0 -14 -2 -25 -4 -25 -3 0 -81 -16 -175 -35 -93 -19 -174 -35
-180 -35 -6 0 -11 10 -11 23 0 20 8 25 63 36 34 8 105 24 157 36 131 31 150
31 150 0z m197 -42 c-3 -10 -5 -4 -5 12 0 17 2 24 5 18 2 -7 2 -21 0 -30z
m697 11 c9 -3 16 -17 16 -31 0 -21 -4 -24 -27 -21 -22 2 -29 9 -31 31 -3 28 9
34 42 21z m1496 -143 l0 -148 -92 -7 c-50 -3 -120 -6 -155 -6 l-63 0 0 139 0
140 43 5 c65 8 209 23 240 25 l27 1 0 -149z m1605 83 l0 -59 -32 -3 -33 -3 0
60 c0 54 2 60 23 64 38 7 42 2 42 -59z m-79 6 c2 -61 -3 -70 -37 -70 -28 0
-29 1 -29 53 0 61 5 69 40 65 22 -3 25 -8 26 -48z m-156 -20 l0 -60 -30 0
c-30 0 -30 1 -30 54 0 57 -2 55 53 65 4 0 7 -26 7 -59z m80 6 c0 -56 -8 -66
-51 -66 -17 0 -19 8 -19 60 l0 60 35 0 35 0 0 -54z m-3840 19 c0 -14 -6 -27
-12 -29 -7 -2 -91 -17 -186 -33 l-173 -29 3 25 c3 24 9 26 152 52 82 16 154
30 160 33 6 2 21 5 34 5 17 1 22 -4 22 -24z m2020 -123 l0 -139 -107 -6 c-58
-4 -121 -7 -140 -7 l-33 0 0 134 0 134 78 7 c42 4 82 8 87 10 6 2 34 4 63 4
l52 1 0 -138z m-1823 71 c-3 -10 -5 -4 -5 12 0 17 2 24 5 18 2 -7 2 -21 0 -30z
m709 2 c11 -27 -3 -43 -30 -38 -19 4 -26 11 -26 29 0 19 5 24 25 24 14 0 28
-7 31 -15z m4275 -2 c13 -16 12 -17 -3 -4 -10 7 -18 15 -18 17 0 8 8 3 21 -13z
m-5183 -30 c-3 -28 -4 -28 -143 -49 -244 -38 -225 -37 -225 -10 0 22 6 25 73
36 39 7 115 20 167 30 134 25 132 25 128 -7z m1650 -100 l-2 -118 -6 105 c-5
98 -4 130 6 130 2 0 3 -53 2 -117z m-138 -13 c0 -87 -3 -110 -14 -110 -7 0
-28 -3 -45 -6 l-31 -6 0 116 0 116 45 0 45 0 0 -110z m2328 37 l3 -57 -36 0
-35 0 0 54 c0 44 4 55 18 59 40 11 47 3 50 -56z m72 3 l0 -60 -30 0 -30 0 0
60 0 60 30 0 30 0 0 -60z m88 3 c-3 -57 -3 -58 -35 -61 l-33 -3 0 60 0 61 35
0 36 0 -3 -57z m-3801 10 c-3 -10 -5 -4 -5 12 0 17 2 24 5 18 2 -7 2 -21 0
-30z m3563 -18 c0 -54 0 -55 -30 -55 -30 0 -30 1 -30 55 0 54 0 55 30 55 30 0
30 -1 30 -55z m-2855 15 c0 -20 -5 -25 -25 -25 -20 0 -26 6 -28 28 -3 26 -1
28 25 25 22 -2 28 -8 28 -28z m-905 -24 c0 -22 -5 -25 -57 -31 -32 -4 -110
-13 -173 -21 -145 -18 -140 -18 -140 9 0 22 6 24 143 44 78 11 161 21 185 22
38 1 42 -1 42 -23z m197 -63 c-3 -10 -5 -4 -5 12 0 17 2 24 5 18 2 -7 2 -21 0
-30z m711 3 c-2 -15 -11 -22 -30 -24 -24 -3 -28 0 -28 21 0 31 5 35 36 29 19
-3 24 -10 22 -26z m-908 -21 c0 -30 -1 -30 -180 -44 -190 -15 -190 -15 -190
12 0 20 6 23 38 25 20 2 89 9 152 16 176 21 180 21 180 -9z m3760 -45 l0 -60
-30 0 -30 0 0 60 0 60 30 0 30 0 0 -60z m75 0 c0 -54 0 -55 -30 -55 -28 0 -30
3 -33 44 -4 60 2 73 35 69 27 -3 28 -5 28 -58z m77 50 c2 -5 1 -32 0 -60 -4
-48 -5 -50 -33 -50 -29 0 -29 0 -29 60 0 60 0 60 29 60 16 0 31 -4 33 -10z
m86 -47 c-3 -57 -3 -58 -35 -61 l-33 -3 0 60 0 61 35 0 36 0 -3 -57z m-3801
-30 c-3 -10 -5 -4 -5 12 0 17 2 24 5 18 2 -7 2 -21 0 -30z m708 7 c0 -20 -5
-25 -25 -25 -20 0 -26 6 -28 28 -3 26 -1 28 25 25 22 -2 28 -8 28 -28z m1485
-130 l0 -150 -155 0 -155 0 0 145 0 144 108 4 c59 1 128 4 155 5 l47 2 0 -150z
m-2392 113 c-3 -28 -3 -28 -103 -35 -55 -3 -137 -9 -182 -12 l-83 -6 0 25 c0
19 5 25 23 26 12 1 81 7 152 14 205 19 197 20 193 -12z m2022 -123 l0 -140
-140 0 -140 0 0 134 0 135 38 4 c20 2 83 4 140 5 l102 2 0 -140z m-373 -62
c-2 -35 -3 -7 -3 62 0 69 1 97 3 63 2 -35 2 -91 0 -125z m-142 57 l0 -110 -42
-3 -43 -3 0 109 c0 60 3 112 7 116 4 4 23 6 43 4 l35 -3 0 -110z m113 3 l-3
-113 -42 -3 -43 -3 0 115 0 116 45 0 46 0 -3 -112z m-710 60 c3 -25 0 -28 -27
-28 -26 0 -31 4 -31 23 0 30 9 39 35 35 13 -2 21 -12 23 -30z m-711 -15 c-3
-10 -5 -4 -5 12 0 17 2 24 5 18 2 -7 2 -21 0 -30z m-197 -9 c0 -22 -4 -24 -48
-24 -27 0 -110 -3 -185 -7 l-137 -6 0 26 c0 26 2 27 58 28 31 1 111 5 177 8
66 3 123 5 128 3 4 -2 7 -14 7 -28z m910 -59 c0 -21 -5 -25 -30 -25 -25 0 -30
4 -30 25 0 21 5 25 30 25 25 0 30 -4 30 -25z m-713 -22 c-3 -10 -5 -4 -5 12 0
17 2 24 5 18 2 -7 2 -21 0 -30z m-197 2 l0 -25 -185 0 -185 0 0 24 0 24 185 2
185 1 0 -26z m905 -65 c0 -20 -5 -25 -25 -25 -20 0 -26 6 -28 28 -3 26 -1 28
25 25 22 -2 28 -8 28 -28z m-708 -27 c-3 -10 -5 -2 -5 17 0 19 2 27 5 18 2
-10 2 -26 0 -35z"/>
<path d="M10700 2941 c0 -20 6 -31 18 -35 32 -9 414 -96 423 -96 5 0 9 12 9
28 0 27 -1 27 -168 66 -92 21 -180 42 -197 46 -84 23 -85 23 -85 -9z"/>
<path d="M10700 2851 c0 -35 -11 -32 245 -86 94 -20 178 -38 188 -41 14 -4 17
1 17 25 0 17 -3 31 -6 31 -7 0 -404 89 -426 96 -14 4 -18 -1 -18 -25z"/>
<path d="M10702 2758 l3 -32 205 -42 c250 -52 242 -52 238 -17 -3 27 -5 28
-198 68 -107 23 -208 45 -223 49 -27 6 -28 5 -25 -26z"/>
<path d="M10700 2669 c0 -34 0 -34 240 -79 91 -17 175 -34 188 -37 19 -4 22
-1 22 24 l0 30 -225 45 -225 45 0 -28z"/>
<path d="M10702 2573 l3 -28 223 -41 222 -41 0 28 c0 31 8 29 -255 79 -200 37
-197 37 -193 3z"/>
<path d="M10700 2485 c0 -14 6 -28 13 -30 12 -5 415 -75 430 -75 4 0 7 13 7
28 l0 28 -212 37 c-117 21 -219 37 -225 37 -7 0 -13 -11 -13 -25z"/>
<path d="M10700 2390 c0 -17 5 -30 13 -30 15 0 384 -58 415 -65 19 -5 22 -1
22 24 0 24 -5 30 -27 35 -48 10 -396 66 -410 66 -8 0 -13 -12 -13 -30z"/>
<path d="M10700 2301 c0 -18 5 -31 13 -31 6 0 102 -14 212 -30 110 -16 206
-30 213 -30 7 0 12 12 12 28 l0 28 -192 28 c-106 16 -208 31 -225 33 -31 5
-33 4 -33 -26z"/>
<path d="M10700 2211 c0 -32 -9 -30 275 -66 66 -8 132 -18 148 -21 25 -5 27
-3 27 25 0 17 -3 31 -8 31 -4 0 -101 14 -215 30 -115 17 -213 30 -218 30 -5 0
-9 -13 -9 -29z"/>
<path d="M10700 2121 c0 -34 -26 -28 252 -61 209 -25 198 -25 198 5 0 30 4 29
-210 55 -91 11 -182 23 -202 26 -37 6 -38 5 -38 -25z"/>
<path d="M10700 2032 c0 -35 1 -35 175 -52 132 -13 192 -20 238 -25 35 -5 37
-4 37 23 l0 29 -192 22 c-106 12 -208 25 -225 28 -31 5 -33 4 -33 -25z"/>
<path d="M10210 1996 c0 -36 12 -46 56 -46 21 0 24 4 24 40 l0 40 -40 0 c-39
0 -40 -1 -40 -34z"/>
<path d="M10310 1981 c0 -38 1 -39 40 -43 l40 -4 0 37 c0 39 -11 49 -56 49
-21 0 -24 -4 -24 -39z"/>
<path d="M10410 1971 c0 -37 2 -39 35 -43 43 -5 45 -3 45 37 0 28 -4 33 -31
39 -48 9 -49 9 -49 -33z"/>
<path d="M10510 1961 c0 -34 3 -41 19 -41 11 0 26 -3 35 -6 13 -5 16 2 16 35
0 34 -3 41 -19 41 -11 0 -26 3 -35 6 -13 5 -16 -2 -16 -35z"/>
<path d="M10700 1941 c0 -34 -13 -31 234 -56 208 -21 216 -21 216 10 0 28 4
27 -220 50 -85 8 -172 18 -192 20 -36 5 -38 4 -38 -24z"/>
<path d="M10210 1901 c0 -38 1 -39 40 -43 l40 -4 0 37 c0 39 -11 49 -56 49
-21 0 -24 -4 -24 -39z"/>
<path d="M10310 1891 c0 -38 1 -39 40 -43 l40 -4 0 37 c0 30 -4 38 -22 43 -50
13 -58 8 -58 -33z"/>
<path d="M10410 1881 l0 -41 40 0 c39 0 40 1 40 35 0 27 -4 35 -17 35 -10 0
-28 3 -40 6 -21 6 -23 3 -23 -35z"/>
<path d="M11230 1885 c0 -33 2 -35 35 -35 33 0 35 2 35 35 0 33 -2 35 -35 35
-33 0 -35 -2 -35 -35z"/>
<path d="M10508 1893 c-9 -41 3 -61 38 -65 33 -4 34 -3 34 34 0 31 -4 38 -19
38 -11 0 -26 3 -34 6 -10 3 -17 -1 -19 -13z"/>
<path d="M11320 1876 c0 -35 1 -36 36 -36 34 0 35 1 32 33 -3 28 -7 32 -35 35
-32 3 -33 2 -33 -32z"/>
<path d="M11400 1865 c0 -33 2 -35 35 -35 32 0 35 3 35 29 0 29 -14 41 -51 41
-15 0 -19 -7 -19 -35z"/>
<path d="M11482 1858 c3 -29 7 -33 36 -36 30 -3 32 -1 32 26 0 31 -14 42 -51
42 -17 0 -20 -6 -17 -32z"/>
<path d="M10700 1851 c0 -24 5 -32 23 -35 19 -4 137 -14 365 -31 l62 -5 0 30
c0 28 -3 30 -37 31 -21 0 -47 2 -58 4 -11 2 -81 8 -155 14 -74 6 -150 14 -167
17 -31 5 -33 3 -33 -25z"/>
<path d="M10210 1810 c0 -25 5 -40 13 -41 6 0 24 -3 40 -5 26 -4 27 -3 27 34
0 36 -3 40 -31 46 -48 9 -49 9 -49 -34z"/>
<path d="M10310 1801 c0 -36 3 -41 23 -42 12 0 30 -2 40 -4 14 -3 17 4 17 36
0 30 -4 39 -17 39 -10 0 -28 3 -40 6 -21 6 -23 3 -23 -35z"/>
<path d="M11230 1806 c0 -35 1 -36 36 -36 34 0 35 1 32 33 -3 28 -7 32 -35 35
-32 3 -33 2 -33 -32z"/>
<path d="M10410 1791 l0 -41 40 0 c39 0 40 1 40 35 0 27 -4 35 -17 35 -10 0
-28 3 -40 6 -21 6 -23 3 -23 -35z"/>
<path d="M11320 1795 c0 -33 2 -35 33 -35 27 0 33 4 34 22 3 29 -14 48 -43 48
-21 0 -24 -5 -24 -35z"/>
<path d="M10510 1781 c0 -40 1 -41 35 -41 33 0 35 2 35 35 0 21 -5 35 -12 35
-7 0 -23 3 -35 6 -21 6 -23 3 -23 -35z"/>
<path d="M11400 1786 c0 -35 1 -36 36 -36 34 0 35 1 32 33 -3 28 -7 32 -35 35
-32 3 -33 2 -33 -32z"/>
<path d="M11482 1778 c3 -29 7 -33 36 -36 32 -3 33 -2 30 30 -3 29 -7 33 -36
36 -32 3 -33 2 -30 -30z"/>
<path d="M10700 1760 c0 -37 -5 -36 225 -50 99 -6 190 -13 203 -16 19 -4 22 0
22 25 0 34 9 32 -250 51 -80 6 -157 13 -172 15 -25 4 -28 2 -28 -25z"/>
<path d="M11230 1725 c0 -21 5 -35 13 -35 6 0 22 -3 35 -6 20 -6 22 -3 22 29
0 28 -5 36 -22 41 -42 11 -48 7 -48 -29z"/>
<path d="M10210 1710 l0 -40 40 0 40 0 0 40 0 40 -40 0 -40 0 0 -40z"/>
<path d="M11320 1715 c0 -33 2 -35 33 -35 28 0 33 4 35 27 2 30 -11 43 -45 43
-20 0 -23 -5 -23 -35z"/>
<path d="M10310 1705 c0 -27 4 -35 18 -35 9 0 27 -3 40 -6 20 -6 22 -3 22 35
l0 41 -40 0 c-39 0 -40 -1 -40 -35z"/>
<path d="M10410 1699 c0 -35 2 -37 35 -41 43 -5 45 -3 45 38 0 30 -2 32 -40
36 l-40 4 0 -37z"/>
<path d="M11400 1705 c0 -33 2 -35 35 -35 32 0 35 3 35 29 0 29 -14 41 -51 41
-15 0 -19 -7 -19 -35z"/>
<path d="M10510 1690 c0 -39 1 -40 35 -40 33 0 35 2 35 34 0 35 -13 46 -51 46
-16 0 -19 -7 -19 -40z"/>
<path d="M11480 1702 c0 -24 5 -31 28 -35 33 -7 45 3 40 34 -2 19 -10 25 -35
27 -31 3 -33 1 -33 -26z"/>
<path d="M10702 1663 c3 -31 -15 -29 321 -47 l127 -8 0 29 0 29 -187 12 c-270
18 -265 18 -261 -15z"/>
<path d="M11235 1672 c-12 -12 -4 -60 11 -66 39 -15 54 -7 54 28 0 30 -3 34
-30 38 -17 3 -32 2 -35 0z"/>
<path d="M11320 1635 c0 -33 2 -35 34 -35 30 0 34 3 32 23 -4 35 -14 47 -42
47 -21 0 -24 -5 -24 -35z"/>
<path d="M10210 1621 l0 -41 41 0 40 0 -3 38 c-3 35 -5 37 -40 40 l-38 3 0
-40z"/>
<path d="M11400 1626 c0 -35 1 -36 36 -36 34 0 35 1 32 33 -3 28 -7 32 -35 35
-32 3 -33 2 -33 -32z"/>
<path d="M10312 1613 c3 -36 5 -38 41 -41 l37 -3 0 40 0 41 -41 0 -40 0 3 -37z"/>
<path d="M10410 1608 c0 -38 0 -38 40 -38 39 0 40 1 40 34 0 32 -2 34 -40 38
l-40 4 0 -38z"/>
<path d="M11480 1621 c0 -23 5 -30 27 -34 36 -7 43 -2 43 34 0 27 -3 29 -35
29 -32 0 -35 -3 -35 -29z"/>
<path d="M10510 1600 c0 -39 1 -40 35 -40 34 0 35 1 35 40 0 39 -1 40 -35 40
-34 0 -35 -1 -35 -40z"/>
<path d="M10700 1573 l0 -30 183 -7 c100 -4 201 -9 225 -13 41 -5 42 -5 42 24
0 30 0 30 -72 36 -40 4 -142 10 -225 13 l-153 7 0 -30z"/>
<path d="M11230 1555 c0 -33 2 -35 35 -35 33 0 35 2 35 35 0 33 -2 35 -35 35
-33 0 -35 -2 -35 -35z"/>
<path d="M11320 1557 c0 -29 4 -36 26 -41 32 -8 38 -3 40 35 1 22 -3 29 -17
29 -9 0 -24 3 -33 6 -13 5 -16 -1 -16 -29z"/>
<path d="M11400 1546 c0 -35 1 -36 36 -36 34 0 35 1 32 33 -3 28 -7 32 -35 35
-32 3 -33 2 -33 -32z"/>
<path d="M10210 1529 l0 -44 40 -2 40 -1 0 39 c0 30 -4 39 -17 39 -10 0 -28 3
-40 6 -21 6 -23 3 -23 -37z"/>
<path d="M11480 1541 c0 -24 5 -29 30 -33 36 -5 40 -3 40 34 0 25 -3 28 -35
28 -32 0 -35 -3 -35 -29z"/>
<path d="M10310 1520 l0 -40 40 0 40 0 0 40 0 40 -40 0 -40 0 0 -40z"/>
<path d="M10410 1515 c0 -34 1 -35 40 -35 39 0 40 1 40 35 0 34 -1 35 -40 35
-39 0 -40 -1 -40 -35z"/>
<path d="M10510 1510 c0 -39 1 -40 35 -40 34 0 35 1 35 40 0 39 -1 40 -35 40
-34 0 -35 -1 -35 -40z"/>
<path d="M10700 1482 l0 -29 167 -6 c91 -4 192 -7 225 -7 57 0 58 1 58 28 0
20 -5 28 -17 28 -10 0 -111 4 -225 8 l-208 8 0 -30z"/>
<path d="M11230 1475 c0 -33 2 -35 35 -35 33 0 35 2 35 35 0 33 -2 35 -35 35
-33 0 -35 -2 -35 -35z"/>
<path d="M11320 1473 c0 -26 4 -33 20 -34 11 -1 25 -2 32 -3 6 -1 13 13 15 30
4 30 2 32 -32 36 -34 4 -35 3 -35 -29z"/>
<path d="M11400 1465 c0 -33 2 -35 35 -35 33 0 35 2 35 35 0 33 -2 35 -35 35
-33 0 -35 -2 -35 -35z"/>
<path d="M11480 1460 c0 -28 3 -30 35 -30 32 0 35 2 35 30 0 28 -3 30 -35 30
-32 0 -35 -2 -35 -30z"/>
<path d="M10210 1430 l0 -40 40 0 40 0 0 40 0 40 -40 0 -40 0 0 -40z"/>
<path d="M10310 1430 l0 -40 40 0 40 0 0 40 0 40 -40 0 -40 0 0 -40z"/>
<path d="M10410 1425 c0 -34 1 -35 40 -35 39 0 40 1 40 35 0 34 -1 35 -40 35
-39 0 -40 -1 -40 -35z"/>
<path d="M10510 1420 c0 -39 1 -40 35 -40 34 0 35 1 35 40 0 39 -1 40 -35 40
-34 0 -35 -1 -35 -40z"/>
<path d="M11230 1395 c0 -33 2 -35 35 -35 33 0 35 2 35 33 0 32 -2 34 -35 35
-34 1 -35 0 -35 -33z"/>
<path d="M10700 1390 l0 -30 98 0 c53 0 154 -3 225 -7 l127 -6 0 30 0 30 -142
6 c-79 4 -180 7 -225 7 l-83 0 0 -30z"/>
<path d="M11320 1384 c0 -34 1 -35 32 -32 29 3 33 6 34 36 1 30 -1 32 -32 32
-32 0 -34 -2 -34 -36z"/>
<path d="M11400 1385 c0 -33 2 -35 35 -35 33 0 35 2 35 35 0 33 -2 35 -35 35
-33 0 -35 -2 -35 -35z"/>
<path d="M11480 1385 c0 -33 2 -35 35 -35 32 0 35 3 35 29 0 21 -6 30 -22 35
-42 11 -48 7 -48 -29z"/>
<path d="M10210 1340 l0 -40 40 0 40 0 0 40 0 40 -40 0 -40 0 0 -40z"/>
<path d="M10310 1341 l0 -41 40 0 c39 0 40 1 40 35 0 19 -1 35 -2 35 -2 1 -20
3 -40 6 l-38 6 0 -41z"/>
<path d="M10410 1335 c0 -34 1 -35 40 -35 39 0 40 1 40 35 0 34 -1 35 -40 35
-39 0 -40 -1 -40 -35z"/>
<path d="M10510 1333 c0 -36 2 -38 35 -40 34 -2 35 -1 35 38 0 38 -1 39 -35
39 -34 0 -35 -1 -35 -37z"/>
<path d="M11243 1343 c-19 -7 -16 -60 3 -67 39 -15 54 -7 54 29 0 19 -4 35 -9
35 -5 0 -15 2 -23 4 -7 3 -19 2 -25 -1z"/>
<path d="M11320 1304 c0 -34 1 -35 32 -32 28 3 32 7 33 36 1 30 -1 32 -32 32
-31 0 -33 -2 -33 -36z"/>
<path d="M11400 1305 c0 -33 2 -35 35 -35 33 0 35 2 35 35 0 33 -2 35 -35 35
-33 0 -35 -2 -35 -35z"/>
<path d="M11480 1306 c0 -35 1 -36 36 -36 34 0 35 1 32 33 -3 28 -7 32 -35 35
-32 3 -33 2 -33 -32z"/>
<path d="M10700 1300 l0 -29 225 -3 225 -3 0 26 c0 25 -4 27 -61 33 -34 3
-136 6 -225 6 l-164 0 0 -30z"/>
<path d="M10212 1245 c3 -39 4 -40 41 -42 37 -1 37 -1 37 37 0 37 -1 38 -40
42 l-41 4 3 -41z"/>
<path d="M10310 1239 l0 -40 38 3 c35 3 37 5 40 41 l3 37 -40 0 -41 0 0 -41z"/>
<path d="M10412 1243 c3 -36 5 -38 38 -38 33 0 35 2 38 38 l3 37 -41 0 -41 0
3 -37z"/>
<path d="M10510 1239 c0 -39 1 -40 33 -37 29 3 32 6 35 41 3 36 3 37 -32 37
-35 0 -36 -1 -36 -41z"/>
<path d="M11230 1225 c0 -33 2 -35 35 -35 33 0 35 2 35 35 0 33 -2 35 -35 35
-33 0 -35 -2 -35 -35z"/>
<path d="M11320 1225 c0 -35 1 -36 32 -33 29 3 33 6 33 33 0 27 -4 30 -32 33
-32 3 -33 2 -33 -33z"/>
<path d="M11400 1225 c0 -33 2 -35 35 -35 33 0 35 2 35 35 0 33 -2 35 -35 35
-33 0 -35 -2 -35 -35z"/>
<path d="M11480 1225 c0 -35 1 -36 33 -33 28 3 32 6 32 33 0 27 -4 30 -32 33
-32 3 -33 2 -33 -33z"/>
<path d="M10700 1210 l0 -30 225 0 225 0 0 30 0 30 -225 0 -225 0 0 -30z"/>
<path d="M5800 4239 c0 -238 4 -419 9 -417 5 2 83 39 175 82 l166 80 -2 280
-3 281 -165 57 c-91 31 -168 57 -172 57 -5 1 -8 -188 -8 -420z"/>
<path d="M7108 4353 l-107 -26 -3 -716 c-2 -394 -1 -719 2 -723 3 -4 44 4 92
18 l88 25 139 -55 c77 -30 151 -58 165 -62 l26 -6 0 716 0 717 -146 69 c-81
39 -147 70 -148 69 0 0 -49 -12 -108 -26z m382 -757 c0 -2 -8 -10 -17 -17 -16
-13 -17 -12 -4 4 13 16 21 21 21 13z m-240 -240 c0 -2 -8 -10 -17 -17 -16 -13
-17 -12 -4 4 13 16 21 21 21 13z"/>
<path d="M4950 4056 l-75 -32 -3 -535 -2 -534 143 -48 c78 -26 147 -47 152
-47 6 0 9 200 7 543 l-2 544 -61 71 c-33 40 -65 72 -72 71 -7 0 -46 -15 -87
-33z"/>
<path d="M6450 3345 c0 -630 1 -666 18 -661 19 6 223 67 325 97 l67 20 1 47
c1 26 3 229 4 452 l2 405 -196 145 c-108 80 -202 149 -208 153 -10 7 -13 -128
-13 -658z m400 -389 c0 -2 -8 -10 -17 -17 -16 -13 -17 -12 -4 4 13 16 21 21
21 13z m-80 -79 c0 -2 -10 -12 -22 -23 l-23 -19 19 23 c18 21 26 27 26 19z
m-90 -91 c0 -2 -8 -10 -17 -17 -16 -13 -17 -12 -4 4 13 16 21 21 21 13z"/>
<path d="M8378 3892 l-97 -87 2 -195 2 -194 78 -19 77 -19 0 -308 0 -308 31
-11 c18 -6 36 -11 40 -11 5 0 9 174 9 388 l0 388 93 70 92 71 3 133 c1 73 -1
137 -6 142 -4 4 -46 15 -93 23 -46 8 -95 17 -109 20 -21 4 -42 -11 -122 -83z"/>
<path d="M7688 3863 l-108 -57 0 -511 0 -512 60 -26 61 -26 -3 -70 c-1 -38 0
-72 2 -75 3 -2 33 11 68 31 l62 35 0 308 0 308 65 57 65 57 0 259 c0 167 -4
260 -10 264 -6 4 -43 9 -83 11 l-72 5 -107 -58z"/>
<path d="M9820 3671 l-65 -27 -2 -713 -3 -713 33 7 c17 4 83 22 145 41 l112
35 0 672 0 673 -67 23 c-38 12 -72 24 -78 26 -5 2 -39 -9 -75 -24z"/>
<path d="M7997 3322 l-119 -77 1 -299 c0 -164 2 -300 3 -301 2 -1 57 27 123
62 l119 64 121 -26 c66 -14 126 -28 133 -30 9 -3 12 63 12 308 l0 313 -127 28
c-71 16 -132 30 -138 32 -5 2 -63 -31 -128 -74z"/>
<path d="M3220 3083 c-25 -9 -55 -19 -67 -24 l-22 -8 0 -339 0 -339 137 -24
137 -25 3 -122 3 -122 27 0 c15 0 44 3 65 6 l37 7 0 477 0 478 -117 22 c-65
12 -127 23 -138 25 -11 2 -40 -3 -65 -12z"/>
<path d="M4563 2868 l-143 -41 0 -99 c0 -90 2 -99 18 -94 9 3 79 18 154 34
l137 29 218 -63 c120 -35 224 -64 231 -64 10 0 12 22 10 93 l-3 92 -225 77
c-124 42 -232 77 -240 77 -8 0 -79 -19 -157 -41z"/>
</g>
</svg>
